<?xml version="1.0" encoding="UTF-8"?>
<svg id="Layer_1" data-name="Layer 1" xmlns="http://www.w3.org/2000/svg" viewBox="0 0 316.66 279.92">
  <defs>
    <style>
      .cls-1 {
        fill: #0d0600;
      }

      .cls-1, .cls-2 {
        stroke-width: 0px;
      }

      .cls-2 {
        fill: #f57d0d;
      }
    </style>
  </defs>
  <path class="cls-2" d="M164.47,172.46l-31.26,33.33-25.35,25.53c-1.14,1.07-2.21,1.89-3.33,2.57-3.49,2.26-7.58,3.47-11.79,3.47-12.11,0-21.96-9.85-21.96-21.96,0-4.29,1.26-8.45,3.58-11.98h-27.04c-1.26,0-2.29-.95-2.29-2.12v-59.72h.14l-.17-37.14c0-.88,0-.97,28.19-29.42l1.04-1.05,28.78-27.31s.23-.23.58-.57c.34-.34.81-.79,1.27-1.24,2.31-2.25,2.86-2.78,3.98-1.84l1.1.93-.84,1.2c-2.06,2.76-7.33,10.87-7.33,15.61,0,5.28,2.3,10.3,6.31,13.77l3.19,2.75-34.93-.03-.09.1-.12,39.55h-.14v55.57h32.45l-2.38,2.62c-3.1,3.43-4.81,7.86-4.81,12.48,0,9.08,6.45,16.82,15.34,18.42.54.12,1.03.2,1.51.26.6.05,1.25.07,1.88.07,10.33,0,18.73-8.41,18.73-18.75,0-4.63-1.71-9.06-4.81-12.48l-2.38-2.62h32.95Z"/>
  <g>
    <path class="cls-1" d="M131.7,147.09v-42.44h15.13v42.44h-15.13ZM132.19,100.38v-11.84h14.23v11.84h-14.23Z"/>
    <path class="cls-1" d="M181.86,104.65h14.8v41.29c0,5.76-1.96,10.24-5.88,13.45-3.92,3.21-9.44,4.81-16.57,4.81-6.74,0-11.95-1.44-15.63-4.32-3.67-2.88-5.59-6.87-5.76-11.97h14.89c.16,3.45,2.47,5.18,6.91,5.18,2.25,0,3.96-.58,5.14-1.73s1.77-2.77,1.77-4.85v-6.58c-2.52,3.67-6.31,5.51-11.35,5.51-5.48,0-9.92-1.97-13.32-5.92-3.4-3.89-5.1-8.91-5.1-15.05s1.65-11.21,4.93-15.05c3.29-3.84,7.68-5.76,13.16-5.76s9.49,2.06,12.01,6.17v-5.18ZM174.38,133.6c4.93,0,7.4-3.04,7.4-9.13s-2.47-8.96-7.4-8.96-7.4,3.1-7.4,9.29c0,5.87,2.47,8.8,7.4,8.8Z"/>
    <path class="cls-1" d="M203.24,147.09v-42.44h15.13v42.44h-15.13ZM203.73,100.38v-11.84h14.23v11.84h-14.23Z"/>
    <path class="cls-1" d="M251.6,115.35h-7.98v16.94c0,1.59.34,2.62,1.03,3.08s1.96.7,3.82.7h3.13v11.02c-2.58.27-4.72.41-6.42.41-5.98,0-10.25-1.04-12.83-3.12-2.58-2.08-3.87-5.51-3.87-10.28v-18.75h-6v-10.69h6v-12.83h15.13v12.83h7.98v10.69Z"/>
    <path class="cls-1" d="M256.53,147.09v-42.44h15.13v42.44h-15.13ZM257.02,100.38v-11.84h14.23v11.84h-14.23Z"/>
  </g>
</svg>